<svg xmlns="http://www.w3.org/2000/svg" viewBox="0 0 64 64">
  <rect width="64" height="64" rx="14" fill="#2563eb"></rect>

  <circle cx="32" cy="32" r="20" fill="#ffffff"></circle>

  <path d="M35 18h-6v4.2c-5.1.8-8 3.8-8 8 0 4.8 3.8 6.5 9.6 7.8 4.2.9 5.4 1.8 5.4 3.6 0 1.7-1.5 2.9-4.3 2.9-3.2 0-5.8-1.3-8.2-3.3l-3.7 4.5c2.6 2.4 5.7 3.9 9.2 4.4V54h6v-4.1c5.3-.8 8.6-4 8.6-8.5 0-4.7-3.5-6.7-9.7-8-4.5-1-5.6-1.7-5.6-3.4 0-1.5 1.4-2.7 3.8-2.7 2.8 0 5 1 7 2.7l3.4-4.7c-2.2-1.8-4.7-2.9-7.5-3.3V18Z" fill="#2563eb"></path>
</svg>